<svg width="134" height="134" viewBox="0 0 134 134" fill="none" xmlns="http://www.w3.org/2000/svg">
<path d="M120.781 24.8693C120.766 24.4318 120.677 24.0047 120.521 23.5881C120.49 23.4995 120.469 23.411 120.427 23.3277C120.406 23.2756 120.396 23.2235 120.375 23.1714L112.057 6.47408C111.359 5.06261 109.912 4.16675 108.333 4.16675H25C23.4219 4.16675 21.974 5.06259 21.2656 6.47408L12.9479 23.1714C12.9271 23.2183 12.9219 23.2756 12.8958 23.3225C12.8594 23.411 12.8437 23.4995 12.8073 23.5881C12.651 24.0047 12.5677 24.4318 12.5469 24.8693C12.5469 24.9266 12.5156 24.9683 12.5156 25.0308V125C12.5156 127.302 14.3802 129.167 16.6823 129.167H116.652C118.954 129.167 120.818 127.302 120.818 125V25.0308C120.818 24.9683 120.787 24.9266 120.782 24.8693H120.781ZM109.922 20.8641H90.9687L87.7864 12.4996H105.75L109.922 20.8641ZM49.406 29.1975H83.9167V62.0988L67.9794 56.7915C67.5523 56.6508 67.1044 56.5727 66.6617 56.5727C66.2189 56.5727 65.771 56.6456 65.3439 56.7915L49.4066 62.0988L49.4118 29.1975H49.406ZM66.666 12.5001H78.8743L82.0514 20.8647H51.286L54.4579 12.5001H66.666ZM27.578 12.5001H45.542L42.365 20.8647H23.4116L27.578 12.5001ZM112.485 120.833H20.8487V29.1975H41.0727V67.8748C41.0727 69.2133 41.7133 70.4685 42.8019 71.2603C43.8956 72.0415 45.2863 72.2551 46.5571 71.8332L66.6664 65.1249L86.7704 71.8228C87.2027 71.9686 87.6454 72.0415 88.0881 72.0415C88.9527 72.0415 89.8069 71.7759 90.5256 71.2603C91.6142 70.479 92.2548 69.2187 92.2548 67.8748V29.1975H112.479V120.833L112.485 120.833Z" fill="white"/>
</svg>
