<svg width="134" height="134" viewBox="0 0 134 134" fill="none" xmlns="http://www.w3.org/2000/svg">
<g clip-path="url(#clip0_3_114)">
<path d="M4.34373 129.64C1.7396 129.64 0 127.468 0 125.296C0 122.692 1.7396 120.953 4.34373 120.953H10.8593L54.2913 6.29653C55.1611 4.99445 56.8955 3.6924 58.6351 3.6924H75.1404C76.88 3.6924 78.6144 4.99448 79.0467 6.734L122.479 120.958H128.994C131.598 120.958 133.338 122.698 133.338 125.302C133.338 127.474 131.598 129.645 128.994 129.645H4.34893L4.34373 129.64ZM19.9797 120.953H113.354L107.276 105.317H26.0629L19.9848 120.953H19.9797ZM104.234 96.6299L98.1563 80.9939H35.1829L29.5371 96.6299H104.24H104.234ZM94.6771 72.3072L89.0312 57.1045H44.2965L38.6507 72.3072H94.6771ZM85.5573 48.4219L79.4792 32.7859H53.8539L47.7757 48.4219H85.5624H85.5573ZM76.4376 24.0992L72.0939 12.3752H61.2345L56.8908 24.0992H76.4376Z" fill="white"/>
</g>
<defs>
<clipPath id="clip0_3_114">
<rect width="133.333" height="133.333" fill="white"/>
</clipPath>
</defs>
</svg>
