<svg width="134" height="134" viewBox="0 0 134 134" fill="none" xmlns="http://www.w3.org/2000/svg">
<path d="M58.6667 26.6667C52.0886 26.6667 46.6667 32.0885 46.6667 38.6667V71.0827C44.6875 68.4316 42.5312 66.4056 40 65.7077C36.5312 64.7546 33.4271 65.9942 31.3334 67.2077C28.8022 69.2181 26.5938 70.7807 25.7083 73.9995C24.875 77.0359 25.4895 80.3068 26.9583 84.0828C33.9895 100.921 42.4996 117.249 52.9996 129.291C53.7444 130.145 54.8642 130.661 55.9996 130.666H91.9996C92.8486 130.661 93.6923 130.379 94.3746 129.874C98.5516 126.78 101.671 121.765 104.291 115.874C106.911 109.983 108.89 103.155 109.916 96.4994C110.942 89.8435 111.02 83.2598 109.5 77.8327C107.953 72.3171 103.875 67.3797 97.7914 66.6661C96.7601 66.6348 95.6507 66.8067 94.7498 66.9161C93.9633 65.4109 92.9112 64.1973 91.7498 63.3745C89.4686 61.7547 87.2134 61.3015 85.2498 61.3329C83.8435 61.3589 82.5623 61.8329 81.3331 62.4995C80.8383 61.911 80.4425 61.161 79.8747 60.7495C77.5987 59.0985 75.2602 58.6662 73.3331 58.6662C72.4216 58.6662 71.5414 58.8068 70.6664 58.9995V38.6662C70.6664 32.0881 65.2446 26.6662 58.6664 26.6662L58.6667 26.6667ZM58.6667 34.6667C60.9531 34.6667 62.6667 36.3803 62.6667 38.6667V66.6667C62.6511 68.474 64.0312 70.1927 65.7918 70.5833C67.5522 70.9792 69.5262 70.0104 70.2918 68.3751C71.7448 66.4896 73.2606 66.5313 75.1667 67.2084C75.6459 67.5574 76 67.7553 76 69.3335C76 71.1252 77.3386 72.8283 79.0782 73.2397C80.8178 73.6512 82.7864 72.7293 83.5834 71.1252C84.625 68.9637 85.3022 69.2293 87.125 69.9169C87.6718 70.3075 88 70.495 88 72.0002C88.0156 73.5366 88.9947 75.0262 90.4062 75.6409C91.8177 76.2555 93.5781 75.9586 94.7084 74.9169C94.75 75.0054 96.4896 74.4429 97.125 74.6669C99.6042 75.0419 100.818 76.4586 101.833 80.0418C102.885 83.7554 102.953 89.3752 102.042 95.2925C101.13 101.21 99.2552 107.459 96.9583 112.626C94.8698 117.313 92.3594 120.819 90.2916 122.667H57.9996C50.5412 112.569 33.3383 85.4021 33.4156 76.1674C34.499 74.3914 36.1812 73.2352 37.874 73.4174C39.9938 74.4904 40.5199 75.5893 41.7907 77.8758L47.0824 88.4592C47.8793 90.0633 49.8428 90.9852 51.5876 90.5737C53.3272 90.1623 54.6762 88.4592 54.6658 86.6674V38.6674C54.6658 36.381 56.3794 34.6674 58.6658 34.6674L58.6667 34.6667Z" fill="white"/>
<path d="M35.8334 3.82293L23.8334 15.8229C23.1511 16.4271 22.6824 17.6093 22.6667 18.6563C22.698 19.7292 22.974 20.6459 23.8334 21.4896L35.8334 33.4896C37.1355 35.0573 40.1042 34.9844 41.6667 33.6563C43.3542 32.224 43.099 29.2552 41.4584 27.8229L36.2917 22.6563H81.0411L75.8744 27.8229C74.2337 29.2552 73.9785 32.224 75.6661 33.6563C77.2286 34.9844 80.1349 35.0677 81.4994 33.4896L93.4994 21.4896C94.3588 20.6459 94.6348 19.7292 94.6661 18.6563C94.6505 17.6094 94.1817 16.4271 93.4994 15.8229L81.4994 3.82293C80.0516 2.53127 77.2025 2.10933 75.6661 3.65627C74.1297 5.2032 74.2338 8.05733 75.8744 9.4896L81.0411 14.6563H36.2917L41.4584 9.4896C43.0991 8.05733 43.2032 5.2032 41.6667 3.65627C39.875 2.14587 37.7553 2.48439 35.8334 3.82293Z" fill="white"/>
</svg>
